<mxfile host="app.diagrams.net" modified="2023-09-30T04:49:53.365Z" agent="Mozilla/5.0 (Windows NT 10.0; Win64; x64) AppleWebKit/537.36 (KHTML, like Gecko) Chrome/114.0.0.0 Safari/537.36" etag="OG89tJ0dYjwymhE8CgWX" version="21.8.0" type="github">
  <diagram name="第 1 页" id="afKNGiqyiqQ_Z6OSEI2z">
    <mxGraphModel dx="1221" dy="743" grid="1" gridSize="10" guides="1" tooltips="1" connect="1" arrows="1" fold="1" page="1" pageScale="1" pageWidth="1169" pageHeight="827" math="0" shadow="0">
      <root>
        <mxCell id="0" />
        <mxCell id="1" parent="0" />
        <mxCell id="8EY8dORyUA3TeWZ3oyKG-25" style="edgeStyle=orthogonalEdgeStyle;rounded=0;orthogonalLoop=1;jettySize=auto;html=1;" edge="1" parent="1" source="8EY8dORyUA3TeWZ3oyKG-1" target="8EY8dORyUA3TeWZ3oyKG-2">
          <mxGeometry relative="1" as="geometry" />
        </mxCell>
        <mxCell id="8EY8dORyUA3TeWZ3oyKG-26" style="edgeStyle=orthogonalEdgeStyle;rounded=0;orthogonalLoop=1;jettySize=auto;html=1;" edge="1" parent="1" source="8EY8dORyUA3TeWZ3oyKG-1" target="8EY8dORyUA3TeWZ3oyKG-3">
          <mxGeometry relative="1" as="geometry" />
        </mxCell>
        <mxCell id="8EY8dORyUA3TeWZ3oyKG-1" value="食品溯源平台" style="rounded=0;whiteSpace=wrap;html=1;" vertex="1" parent="1">
          <mxGeometry x="360" y="40" width="120" height="60" as="geometry" />
        </mxCell>
        <mxCell id="8EY8dORyUA3TeWZ3oyKG-27" style="edgeStyle=orthogonalEdgeStyle;rounded=0;orthogonalLoop=1;jettySize=auto;html=1;" edge="1" parent="1" source="8EY8dORyUA3TeWZ3oyKG-2" target="8EY8dORyUA3TeWZ3oyKG-6">
          <mxGeometry relative="1" as="geometry" />
        </mxCell>
        <mxCell id="8EY8dORyUA3TeWZ3oyKG-29" style="edgeStyle=orthogonalEdgeStyle;rounded=0;orthogonalLoop=1;jettySize=auto;html=1;exitX=0;exitY=0.5;exitDx=0;exitDy=0;entryX=0.5;entryY=0;entryDx=0;entryDy=0;" edge="1" parent="1" source="8EY8dORyUA3TeWZ3oyKG-2" target="8EY8dORyUA3TeWZ3oyKG-4">
          <mxGeometry relative="1" as="geometry" />
        </mxCell>
        <mxCell id="8EY8dORyUA3TeWZ3oyKG-30" style="edgeStyle=orthogonalEdgeStyle;rounded=0;orthogonalLoop=1;jettySize=auto;html=1;exitX=1;exitY=0.5;exitDx=0;exitDy=0;entryX=0.5;entryY=0;entryDx=0;entryDy=0;" edge="1" parent="1" source="8EY8dORyUA3TeWZ3oyKG-2" target="8EY8dORyUA3TeWZ3oyKG-8">
          <mxGeometry relative="1" as="geometry" />
        </mxCell>
        <mxCell id="8EY8dORyUA3TeWZ3oyKG-2" value="用户管理" style="rounded=0;whiteSpace=wrap;html=1;" vertex="1" parent="1">
          <mxGeometry x="140" y="190" width="120" height="60" as="geometry" />
        </mxCell>
        <mxCell id="8EY8dORyUA3TeWZ3oyKG-33" style="edgeStyle=orthogonalEdgeStyle;rounded=0;orthogonalLoop=1;jettySize=auto;html=1;entryX=0.5;entryY=0;entryDx=0;entryDy=0;" edge="1" parent="1" source="8EY8dORyUA3TeWZ3oyKG-3" target="8EY8dORyUA3TeWZ3oyKG-12">
          <mxGeometry relative="1" as="geometry" />
        </mxCell>
        <mxCell id="8EY8dORyUA3TeWZ3oyKG-36" style="edgeStyle=orthogonalEdgeStyle;rounded=0;orthogonalLoop=1;jettySize=auto;html=1;exitX=0;exitY=0.5;exitDx=0;exitDy=0;entryX=0.5;entryY=0;entryDx=0;entryDy=0;" edge="1" parent="1" source="8EY8dORyUA3TeWZ3oyKG-3" target="8EY8dORyUA3TeWZ3oyKG-10">
          <mxGeometry relative="1" as="geometry" />
        </mxCell>
        <mxCell id="8EY8dORyUA3TeWZ3oyKG-45" style="edgeStyle=orthogonalEdgeStyle;rounded=0;orthogonalLoop=1;jettySize=auto;html=1;exitX=1;exitY=0.5;exitDx=0;exitDy=0;entryX=0.5;entryY=0;entryDx=0;entryDy=0;" edge="1" parent="1" source="8EY8dORyUA3TeWZ3oyKG-3" target="8EY8dORyUA3TeWZ3oyKG-14">
          <mxGeometry relative="1" as="geometry" />
        </mxCell>
        <mxCell id="8EY8dORyUA3TeWZ3oyKG-3" value="订单溯源" style="rounded=0;whiteSpace=wrap;html=1;" vertex="1" parent="1">
          <mxGeometry x="710" y="190" width="120" height="60" as="geometry" />
        </mxCell>
        <mxCell id="8EY8dORyUA3TeWZ3oyKG-32" style="edgeStyle=orthogonalEdgeStyle;rounded=0;orthogonalLoop=1;jettySize=auto;html=1;exitX=0.5;exitY=1;exitDx=0;exitDy=0;entryX=0.5;entryY=0;entryDx=0;entryDy=0;" edge="1" parent="1" source="8EY8dORyUA3TeWZ3oyKG-4" target="8EY8dORyUA3TeWZ3oyKG-5">
          <mxGeometry relative="1" as="geometry" />
        </mxCell>
        <mxCell id="8EY8dORyUA3TeWZ3oyKG-4" value="用户注册" style="rounded=0;whiteSpace=wrap;html=1;" vertex="1" parent="1">
          <mxGeometry y="320" width="120" height="60" as="geometry" />
        </mxCell>
        <mxCell id="8EY8dORyUA3TeWZ3oyKG-5" value="用户登录" style="rounded=0;whiteSpace=wrap;html=1;" vertex="1" parent="1">
          <mxGeometry y="420" width="120" height="60" as="geometry" />
        </mxCell>
        <mxCell id="8EY8dORyUA3TeWZ3oyKG-28" style="edgeStyle=orthogonalEdgeStyle;rounded=0;orthogonalLoop=1;jettySize=auto;html=1;exitX=0.5;exitY=1;exitDx=0;exitDy=0;entryX=0.5;entryY=0;entryDx=0;entryDy=0;" edge="1" parent="1" source="8EY8dORyUA3TeWZ3oyKG-6" target="8EY8dORyUA3TeWZ3oyKG-7">
          <mxGeometry relative="1" as="geometry" />
        </mxCell>
        <mxCell id="8EY8dORyUA3TeWZ3oyKG-6" value="用户信息保存" style="rounded=0;whiteSpace=wrap;html=1;" vertex="1" parent="1">
          <mxGeometry x="140" y="320" width="120" height="60" as="geometry" />
        </mxCell>
        <mxCell id="8EY8dORyUA3TeWZ3oyKG-7" value="用户信息修改" style="rounded=0;whiteSpace=wrap;html=1;" vertex="1" parent="1">
          <mxGeometry x="140" y="420" width="120" height="60" as="geometry" />
        </mxCell>
        <mxCell id="8EY8dORyUA3TeWZ3oyKG-31" style="edgeStyle=orthogonalEdgeStyle;rounded=0;orthogonalLoop=1;jettySize=auto;html=1;exitX=0.5;exitY=1;exitDx=0;exitDy=0;entryX=0.5;entryY=0;entryDx=0;entryDy=0;" edge="1" parent="1" source="8EY8dORyUA3TeWZ3oyKG-8" target="8EY8dORyUA3TeWZ3oyKG-9">
          <mxGeometry relative="1" as="geometry" />
        </mxCell>
        <mxCell id="8EY8dORyUA3TeWZ3oyKG-8" value="用户权限管理" style="rounded=0;whiteSpace=wrap;html=1;" vertex="1" parent="1">
          <mxGeometry x="280" y="320" width="120" height="60" as="geometry" />
        </mxCell>
        <mxCell id="8EY8dORyUA3TeWZ3oyKG-9" value="删除用户" style="rounded=0;whiteSpace=wrap;html=1;" vertex="1" parent="1">
          <mxGeometry x="280" y="420" width="120" height="60" as="geometry" />
        </mxCell>
        <mxCell id="8EY8dORyUA3TeWZ3oyKG-37" style="edgeStyle=orthogonalEdgeStyle;rounded=0;orthogonalLoop=1;jettySize=auto;html=1;exitX=0.5;exitY=1;exitDx=0;exitDy=0;entryX=0.5;entryY=0;entryDx=0;entryDy=0;" edge="1" parent="1" source="8EY8dORyUA3TeWZ3oyKG-10" target="8EY8dORyUA3TeWZ3oyKG-15">
          <mxGeometry relative="1" as="geometry" />
        </mxCell>
        <mxCell id="8EY8dORyUA3TeWZ3oyKG-10" value="生产商模块" style="rounded=0;whiteSpace=wrap;html=1;" vertex="1" parent="1">
          <mxGeometry x="430" y="320" width="120" height="60" as="geometry" />
        </mxCell>
        <mxCell id="8EY8dORyUA3TeWZ3oyKG-39" style="edgeStyle=orthogonalEdgeStyle;rounded=0;orthogonalLoop=1;jettySize=auto;html=1;exitX=0.5;exitY=1;exitDx=0;exitDy=0;entryX=0.5;entryY=0;entryDx=0;entryDy=0;" edge="1" parent="1" source="8EY8dORyUA3TeWZ3oyKG-11" target="8EY8dORyUA3TeWZ3oyKG-16">
          <mxGeometry relative="1" as="geometry" />
        </mxCell>
        <mxCell id="8EY8dORyUA3TeWZ3oyKG-47" style="edgeStyle=orthogonalEdgeStyle;rounded=0;orthogonalLoop=1;jettySize=auto;html=1;exitX=0;exitY=0.5;exitDx=0;exitDy=0;entryX=0.5;entryY=0;entryDx=0;entryDy=0;" edge="1" parent="1" source="8EY8dORyUA3TeWZ3oyKG-3" target="8EY8dORyUA3TeWZ3oyKG-11">
          <mxGeometry relative="1" as="geometry" />
        </mxCell>
        <mxCell id="8EY8dORyUA3TeWZ3oyKG-11" value="收购商模块" style="rounded=0;whiteSpace=wrap;html=1;" vertex="1" parent="1">
          <mxGeometry x="570" y="320" width="120" height="60" as="geometry" />
        </mxCell>
        <mxCell id="8EY8dORyUA3TeWZ3oyKG-34" style="edgeStyle=orthogonalEdgeStyle;rounded=0;orthogonalLoop=1;jettySize=auto;html=1;exitX=0.5;exitY=1;exitDx=0;exitDy=0;entryX=0.5;entryY=0;entryDx=0;entryDy=0;" edge="1" parent="1" source="8EY8dORyUA3TeWZ3oyKG-12" target="8EY8dORyUA3TeWZ3oyKG-17">
          <mxGeometry relative="1" as="geometry" />
        </mxCell>
        <mxCell id="8EY8dORyUA3TeWZ3oyKG-12" value="运输商模块" style="rounded=0;whiteSpace=wrap;html=1;" vertex="1" parent="1">
          <mxGeometry x="710" y="320" width="120" height="60" as="geometry" />
        </mxCell>
        <mxCell id="8EY8dORyUA3TeWZ3oyKG-41" style="edgeStyle=orthogonalEdgeStyle;rounded=0;orthogonalLoop=1;jettySize=auto;html=1;exitX=0.5;exitY=1;exitDx=0;exitDy=0;entryX=0.5;entryY=0;entryDx=0;entryDy=0;" edge="1" parent="1" source="8EY8dORyUA3TeWZ3oyKG-13" target="8EY8dORyUA3TeWZ3oyKG-18">
          <mxGeometry relative="1" as="geometry" />
        </mxCell>
        <mxCell id="8EY8dORyUA3TeWZ3oyKG-46" style="edgeStyle=orthogonalEdgeStyle;rounded=0;orthogonalLoop=1;jettySize=auto;html=1;exitX=1;exitY=0.5;exitDx=0;exitDy=0;entryX=0.5;entryY=0;entryDx=0;entryDy=0;" edge="1" parent="1" source="8EY8dORyUA3TeWZ3oyKG-3" target="8EY8dORyUA3TeWZ3oyKG-13">
          <mxGeometry relative="1" as="geometry" />
        </mxCell>
        <mxCell id="8EY8dORyUA3TeWZ3oyKG-13" value="销售商模块" style="rounded=0;whiteSpace=wrap;html=1;" vertex="1" parent="1">
          <mxGeometry x="850" y="320" width="120" height="60" as="geometry" />
        </mxCell>
        <mxCell id="8EY8dORyUA3TeWZ3oyKG-48" style="edgeStyle=orthogonalEdgeStyle;rounded=0;orthogonalLoop=1;jettySize=auto;html=1;exitX=0.5;exitY=1;exitDx=0;exitDy=0;entryX=0.5;entryY=0;entryDx=0;entryDy=0;" edge="1" parent="1" source="8EY8dORyUA3TeWZ3oyKG-14" target="8EY8dORyUA3TeWZ3oyKG-24">
          <mxGeometry relative="1" as="geometry" />
        </mxCell>
        <mxCell id="8EY8dORyUA3TeWZ3oyKG-14" value="消费者" style="rounded=0;whiteSpace=wrap;html=1;" vertex="1" parent="1">
          <mxGeometry x="990" y="320" width="120" height="60" as="geometry" />
        </mxCell>
        <mxCell id="8EY8dORyUA3TeWZ3oyKG-38" style="edgeStyle=orthogonalEdgeStyle;rounded=0;orthogonalLoop=1;jettySize=auto;html=1;exitX=0.5;exitY=1;exitDx=0;exitDy=0;entryX=0.5;entryY=0;entryDx=0;entryDy=0;" edge="1" parent="1" source="8EY8dORyUA3TeWZ3oyKG-15" target="8EY8dORyUA3TeWZ3oyKG-20">
          <mxGeometry relative="1" as="geometry" />
        </mxCell>
        <mxCell id="8EY8dORyUA3TeWZ3oyKG-15" value="食品生产信息上链" style="rounded=0;whiteSpace=wrap;html=1;" vertex="1" parent="1">
          <mxGeometry x="430" y="420" width="120" height="60" as="geometry" />
        </mxCell>
        <mxCell id="8EY8dORyUA3TeWZ3oyKG-40" style="edgeStyle=orthogonalEdgeStyle;rounded=0;orthogonalLoop=1;jettySize=auto;html=1;exitX=0.5;exitY=1;exitDx=0;exitDy=0;entryX=0.5;entryY=0;entryDx=0;entryDy=0;" edge="1" parent="1" source="8EY8dORyUA3TeWZ3oyKG-16" target="8EY8dORyUA3TeWZ3oyKG-21">
          <mxGeometry relative="1" as="geometry" />
        </mxCell>
        <mxCell id="8EY8dORyUA3TeWZ3oyKG-16" value="食品收购信息上链" style="rounded=0;whiteSpace=wrap;html=1;" vertex="1" parent="1">
          <mxGeometry x="570" y="420" width="120" height="60" as="geometry" />
        </mxCell>
        <mxCell id="8EY8dORyUA3TeWZ3oyKG-35" style="edgeStyle=orthogonalEdgeStyle;rounded=0;orthogonalLoop=1;jettySize=auto;html=1;exitX=0.5;exitY=1;exitDx=0;exitDy=0;entryX=0.5;entryY=0;entryDx=0;entryDy=0;" edge="1" parent="1" source="8EY8dORyUA3TeWZ3oyKG-17" target="8EY8dORyUA3TeWZ3oyKG-22">
          <mxGeometry relative="1" as="geometry" />
        </mxCell>
        <mxCell id="8EY8dORyUA3TeWZ3oyKG-17" value="食品运输信息上链" style="rounded=0;whiteSpace=wrap;html=1;" vertex="1" parent="1">
          <mxGeometry x="710" y="420" width="120" height="60" as="geometry" />
        </mxCell>
        <mxCell id="8EY8dORyUA3TeWZ3oyKG-42" style="edgeStyle=orthogonalEdgeStyle;rounded=0;orthogonalLoop=1;jettySize=auto;html=1;exitX=0.5;exitY=1;exitDx=0;exitDy=0;entryX=0.5;entryY=0;entryDx=0;entryDy=0;" edge="1" parent="1" source="8EY8dORyUA3TeWZ3oyKG-18" target="8EY8dORyUA3TeWZ3oyKG-23">
          <mxGeometry relative="1" as="geometry" />
        </mxCell>
        <mxCell id="8EY8dORyUA3TeWZ3oyKG-18" value="食品销售信息上链" style="rounded=0;whiteSpace=wrap;html=1;" vertex="1" parent="1">
          <mxGeometry x="850" y="420" width="120" height="60" as="geometry" />
        </mxCell>
        <mxCell id="8EY8dORyUA3TeWZ3oyKG-20" value="根据食品ID查询食品生产信息" style="rounded=0;whiteSpace=wrap;html=1;" vertex="1" parent="1">
          <mxGeometry x="430" y="520" width="120" height="60" as="geometry" />
        </mxCell>
        <mxCell id="8EY8dORyUA3TeWZ3oyKG-21" value="根据食品ID查询食品收购信息" style="rounded=0;whiteSpace=wrap;html=1;" vertex="1" parent="1">
          <mxGeometry x="570" y="520" width="120" height="60" as="geometry" />
        </mxCell>
        <mxCell id="8EY8dORyUA3TeWZ3oyKG-22" value="根据食品ID查询食品运输信息" style="rounded=0;whiteSpace=wrap;html=1;" vertex="1" parent="1">
          <mxGeometry x="710" y="520" width="120" height="60" as="geometry" />
        </mxCell>
        <mxCell id="8EY8dORyUA3TeWZ3oyKG-23" value="根据食品ID查询食品销售信息" style="rounded=0;whiteSpace=wrap;html=1;" vertex="1" parent="1">
          <mxGeometry x="850" y="520" width="120" height="60" as="geometry" />
        </mxCell>
        <mxCell id="8EY8dORyUA3TeWZ3oyKG-24" value="根据食品ID查询食品全部信息" style="rounded=0;whiteSpace=wrap;html=1;" vertex="1" parent="1">
          <mxGeometry x="990" y="520" width="120" height="60" as="geometry" />
        </mxCell>
      </root>
    </mxGraphModel>
  </diagram>
</mxfile>
